<svg xmlns="http://www.w3.org/2000/svg" viewBox="0 0 487.56 139.31"><defs><style>.cls-1{fill:#616264;}.cls-2{fill:#bf2026;}.cls-3{fill:#939598;}.cls-4{fill:#a7a9ac;}</style></defs><title>Asset 1</title><g id="Layer_2" data-name="Layer 2"><g id="Layer_1-2" data-name="Layer 1"><path class="cls-1" d="M161.47,82.53q0,5.79-6.31,5.78h-27.6V25H155q6.14,0,6.14,5.82V47.11a6.09,6.09,0,0,1-2.21,5c-.2.16-2,1.2-5.38,3.11q5.25,3,5.56,3.24a6.31,6.31,0,0,1,2.38,5.22ZM150.83,48.28V32.94H137.89V51.52h8Zm.27,32.06V62.29L146,59.21h-8.13V80.34Z"/><path class="cls-1" d="M204.44,82.53q0,5.79-6.27,5.78H175.74c-4.09,0-6.14-1.92-6.14-5.78V30.79q0-5.82,6.14-5.82h22.43q6.27,0,6.27,5.82Zm-10.33-2.35V33.1H179.93V80.18Z"/><path class="cls-1" d="M247.58,82.53q0,5.79-6.27,5.78H218.88c-4.09,0-6.14-1.92-6.14-5.78V30.79q0-5.82,6.14-5.82h22.43q6.27,0,6.27,5.82Zm-10.33-2.35V33.1H223.08V80.18Z"/><path class="cls-1" d="M290.73,88.31h-11.4L266.22,60.06V88.31H255.89V25h10.33V51.76L277.7,25H289v.44L275,55.49Z"/><path class="cls-1" d="M328,82.53q0,5.79-6.27,5.78h-20.8q-6.23,0-6.23-5.78V67.43H305V80.34h12.63V67.91L297,49.94a6.44,6.44,0,0,1-2.25-5.06V30.79q0-5.82,6.23-5.82h20.8Q328,25,328,30.71V44.88H317.66V32.94H305V44.39l20.72,17.9A6.45,6.45,0,0,1,328,67.43Z"/><path class="cls-2" d="M370.94,59.45q0,5.91-6.32,5.91H347.88v23H337.55V25h27.07q6.31,0,6.32,5.82Zm-10.43-2.22V33.1H347.88V57.23Z"/><path class="cls-2" d="M405.42,88.31H378.27V25H388.6V79.85h16.82Z"/><path class="cls-2" d="M446.14,82.53q0,5.79-6.36,5.78H417.83q-6.27,0-6.27-5.78V25H421.9V80.18h13.91V25h10.33Z"/><path class="cls-2" d="M487.56,82.53q0,5.79-6.27,5.78h-20.8q-6.23,0-6.23-5.78V67.43H464.6V80.34h12.63V67.91l-20.71-18a6.42,6.42,0,0,1-2.26-5.06V30.79q0-5.82,6.23-5.82h20.8q6.27,0,6.27,5.74V44.88H477.23V32.94H464.6V44.39l20.71,17.9a6.45,6.45,0,0,1,2.25,5.14Z"/><path class="cls-2" d="M20.56,119.93c-.07-23.82-.07-49.75,0-79.25,0-9.48,3.15-13.37,12.41-15.42C49.92,21.52,67.45,17.64,85,14c.49-.1,1-.28,1.63-.46a16.29,16.29,0,0,1,3.87-.84c-1.19-2.18-3.75-2.22-7.81-1.32-19.26,4.26-38.6,8.18-57.92,12.19-3.85.8-7.77,1.84-11.6-.06-2-1-4.2-2.33-4-4.84S12,16.19,13.86,15.8c16.89-3.57,33.81-7,50.69-10.64,2.62-.56,7.53,0,6.93-3.24-.67-3.53-5.09-1.21-7.69-.69C46.37,4.69,29,8.35,11.62,12,3.38,13.75.86,16.77.76,25.24Q.28,64.87,0,104.48c-.06,9.13,11.65,19.59,21.23,19.57A14.19,14.19,0,0,1,20.56,119.93Zm-7.77-8.82c-.38,1.64-1.58,1.64-2.82,1-4.5-2.26-5.53-5.91-3.89-11.24C10.88,103.06,14.07,105.68,12.79,111.11Zm.09-72.84C6.65,37.08,5,33.42,6.8,27.58,12.47,29.06,15.32,32,12.88,38.27Z"/><path class="cls-2" d="M113.1,118.62c.09,4.59-1.45,6.53-5.93,7.45-20.29,4.19-40.48,8.83-60.78,13-9.87,2-23.67-9.28-23.69-19.14q-.12-39.63,0-79.25c0-8.47,2.51-11.52,10.73-13.33,17.34-3.83,34.68-7.66,52.06-11.29,2.59-.54,7-2.91,7.7.62.63,3.19-4.28,2.72-6.9,3.31C69.43,23.76,52.55,27.38,35.7,31.12c-1.83.4-4.44.39-4.62,2.88s2,3.81,4,4.8c3.85,1.87,7.76.79,11.6,0C66,34.55,85.3,30.45,104.52,26c6.21-1.44,8.93-.65,8.64,6.73-.55,14-.16,28.13-.16,42.2C113,89.49,112.83,104.06,113.1,118.62Zm-12.53-75.7c3.22-.61,6.3-1.22,5.65-5.7-.27-1.9,0-4.23-3-3.74s-6.59.77-6,5.45C97.42,41,97,43.6,100.57,42.92Zm5.6,72.58c-.18-2,.74-5.11-3-4.5-2.71.44-6.34.39-6,4.86.17,2.07-.61,4.81,3,4.62C103,119.74,106.56,119.9,106.17,115.5Zm-20.66-.67c-3.05.39-6.06.84-5.59,5.09.22,2-.66,4.92,3.18,4.16,2.86-.56,6.24-.55,5.74-4.58C88.79,116.84,89,114.4,85.51,114.83ZM83.1,46.61c3-.39,6-.78,5.74-5-.13-2.18.37-4.75-3.24-4.2-2.93.44-6.2.47-5.73,4.07C80.06,44.44,79.44,47.08,83.1,46.61ZM71.32,122.74c-.21-2.11.46-4.84-3.28-4.11-2.88.57-6.09.72-5.55,5.1.26,2.13-.42,4.8,3.27,4.19C68.77,127.45,71.75,127,71.32,122.74ZM65.51,50.52c3.18-.62,6.51-1.09,5.84-5.77-.29-2-.07-4.25-3.12-3.69s-6.68,1-5.79,5.09C62.64,48.78,62.31,51.15,65.51,50.52ZM48.36,131.71c2.93-.63,6-1,5.43-5.28-.27-2.24.12-4.73-3.42-4-2.95.59-6.08,1.07-5.47,4.78C45,130,44.71,132.5,48.36,131.71ZM44.94,49.87c.13,2.18-.28,4.64,3.2,4.26,3-.32,6-.6,5.61-4.85-.19-2.06.52-4.72-3.1-4.25C47.67,45.38,44.67,45.65,44.94,49.87Zm-12.2,77.61c1.25.61,2.44.59,2.81-1,1.22-5.44-2-8-6.81-10.15C27.15,121.62,28.21,125.26,32.74,127.48ZM28.75,43c-1.72,5.86-.06,9.5,6.18,10.63C37.31,47.3,34.44,44.39,28.75,43Z"/><path class="cls-3" d="M135.8,118.93a2.67,2.67,0,0,1-.87,2,3.08,3.08,0,0,1-2.18.81h-3.23v5h-2V108.48h2v.37l2.33-.27a20.19,20.19,0,0,1,2.31-.18c1.09,0,1.64.5,1.64,1.49Zm-2-.28v-8.54l-4.32.11v10h2.71C133.3,120.19,133.84,119.67,133.84,118.65Z"/><path class="cls-3" d="M155.49,112.86h-1.93v-2.75l-3.61.11v11.56h-2v-13.3h2v.37l2-.29a14.56,14.56,0,0,1,2-.16c1.08,0,1.62.5,1.62,1.49Z"/><path class="cls-3" d="M169.11,105.57h-2v-2.3h2Zm0,16.21h-1.93v-13.3h1.93Z"/><path class="cls-3" d="M189.71,121.78h-2V110.11l-4.32.11v11.56h-2v-13.3h2v.37l2.31-.29a20.79,20.79,0,0,1,2.33-.16c1.09,0,1.64.5,1.64,1.49Z"/><path class="cls-3" d="M207.09,121.78H204.3c-1.1,0-1.65-.51-1.65-1.54V110.08h-1.72v-1.6h1.72v-4.14h1.93v4.14h2.51v1.6h-2.51v10.11h2.51Z"/><path class="cls-3" d="M271.64,121.78h-1.93v-.36l-2.33.28a21.53,21.53,0,0,1-2.31.17c-1.07,0-1.61-.5-1.61-1.48v-4.85c0-1,.56-1.53,1.67-1.53h4.61v-4h-4.21v2.27h-1.9V110c0-1,.55-1.55,1.65-1.55H270c1.1,0,1.65.52,1.65,1.55Zm-1.9-1.65v-4.7h-4.37v4.78Z"/><path class="cls-3" d="M292.12,121.78h-1.93v-.36l-2.35.28a21,21,0,0,1-2.34.17c-1.06,0-1.59-.5-1.59-1.48V108.48h1.93v11.68l4.35-.11V108.48h1.93Z"/><path class="cls-3" d="M312.52,121.78h-1.95v-.36c-2.1.3-3.26.45-3.49.45a2.65,2.65,0,0,1-2.78-2.75v-7.78a2.67,2.67,0,0,1,.87-2,3,3,0,0,1,2.18-.82h3.22v-8.09h1.95Zm-1.95-1.65v-10h-2.71c-1.08,0-1.62.52-1.62,1.55v7.11q0,1.53,1.62,1.53C308.12,120.27,309,120.22,310.57,120.13Z"/><path class="cls-3" d="M326.88,105.57h-2v-2.3h2Zm0,16.21h-1.93v-13.3h1.93Z"/><path class="cls-3" d="M347.47,120.24c0,1-.55,1.54-1.66,1.54h-4.93c-1.1,0-1.65-.51-1.65-1.54V110c0-1,.55-1.55,1.65-1.55h4.93c1.11,0,1.66.52,1.66,1.55Zm-2,0V110.08h-4.32v10.11Z"/><path class="cls-3" d="M412.69,108.48l-3.55,13.33h-1.78l-3.57-13.33h2L408.25,119l2.48-10.47Z"/><path class="cls-3" d="M426.22,105.57h-2v-2.3h2Zm0,16.21h-1.93v-13.3h1.93Z"/><path class="cls-3" d="M446.73,121.78h-2v-.36c-2.1.3-3.26.45-3.49.45a2.65,2.65,0,0,1-2.78-2.75v-7.78a2.66,2.66,0,0,1,.86-2,3.05,3.05,0,0,1,2.19-.82h3.22v-8.09h2Zm-2-1.65v-10h-2.71c-1.08,0-1.62.52-1.62,1.55v7.11q0,1.53,1.62,1.53C442.33,120.27,443.23,120.22,444.78,120.13Z"/><path class="cls-3" d="M467,120.24c0,1-.55,1.54-1.65,1.54h-4.72c-1.1,0-1.65-.51-1.65-1.54V110c0-1,.55-1.55,1.65-1.55h4.72c1.1,0,1.65.52,1.65,1.55v4.78l-.67.64h-5.45v4.82h4.21v-2.44H467ZM465.12,114v-4h-4.21v4Z"/><path class="cls-3" d="M487.56,120.24c0,1-.55,1.54-1.67,1.54H481c-1.1,0-1.65-.51-1.65-1.54V110c0-1,.55-1.55,1.65-1.55h4.92c1.12,0,1.67.52,1.67,1.55Zm-2,0V110.08h-4.32v10.11Z"/><rect class="cls-2" x="232.5" y="111.14" width="6.47" height="6.47" transform="translate(149.92 -133.19) rotate(45)"/><rect class="cls-2" x="373.28" y="111.14" width="6.47" height="6.47" transform="translate(191.15 -232.74) rotate(45)"/><rect class="cls-4" x="127.56" y="96.31" width="360" height="1"/></g></g></svg>